<mxfile host="app.diagrams.net" modified="2023-06-16T01:26:43.758Z" agent="Mozilla/5.0 (Windows NT 10.0; Win64; x64) AppleWebKit/537.36 (KHTML, like Gecko) Chrome/114.0.0.0 Safari/537.36" etag="T3a4ZuT4yMnFF0a-E2Bu" version="21.3.7" type="device">
  <diagram name="페이지-1" id="Xg_q3Cot634-1ghx6dJ5">
    <mxGraphModel dx="2049" dy="1080" grid="1" gridSize="10" guides="1" tooltips="1" connect="1" arrows="1" fold="1" page="1" pageScale="1" pageWidth="4681" pageHeight="3300" math="0" shadow="0">
      <root>
        <mxCell id="0" />
        <mxCell id="1" parent="0" />
        <mxCell id="U9TERcy0e56pPqCLAwJ6-8" style="rounded=0;sketch=1;hachureGap=4;jiggle=2;curveFitting=1;orthogonalLoop=1;jettySize=auto;html=1;fontFamily=Architects Daughter;fontSource=https%3A%2F%2Ffonts.googleapis.com%2Fcss%3Ffamily%3DArchitects%2BDaughter;fontSize=16;" edge="1" parent="1" source="U9TERcy0e56pPqCLAwJ6-1" target="U9TERcy0e56pPqCLAwJ6-3">
          <mxGeometry relative="1" as="geometry" />
        </mxCell>
        <mxCell id="U9TERcy0e56pPqCLAwJ6-9" style="rounded=0;sketch=1;hachureGap=4;jiggle=2;curveFitting=1;orthogonalLoop=1;jettySize=auto;html=1;entryX=1;entryY=0;entryDx=0;entryDy=0;fontFamily=Architects Daughter;fontSource=https%3A%2F%2Ffonts.googleapis.com%2Fcss%3Ffamily%3DArchitects%2BDaughter;fontSize=16;" edge="1" parent="1" source="U9TERcy0e56pPqCLAwJ6-1" target="U9TERcy0e56pPqCLAwJ6-4">
          <mxGeometry relative="1" as="geometry" />
        </mxCell>
        <mxCell id="U9TERcy0e56pPqCLAwJ6-10" style="edgeStyle=orthogonalEdgeStyle;rounded=0;sketch=1;hachureGap=4;jiggle=2;curveFitting=1;orthogonalLoop=1;jettySize=auto;html=1;entryX=0.5;entryY=0;entryDx=0;entryDy=0;fontFamily=Architects Daughter;fontSource=https%3A%2F%2Ffonts.googleapis.com%2Fcss%3Ffamily%3DArchitects%2BDaughter;fontSize=16;" edge="1" parent="1" source="U9TERcy0e56pPqCLAwJ6-1" target="U9TERcy0e56pPqCLAwJ6-6">
          <mxGeometry relative="1" as="geometry" />
        </mxCell>
        <mxCell id="U9TERcy0e56pPqCLAwJ6-11" style="rounded=0;sketch=1;hachureGap=4;jiggle=2;curveFitting=1;orthogonalLoop=1;jettySize=auto;html=1;fontFamily=Architects Daughter;fontSource=https%3A%2F%2Ffonts.googleapis.com%2Fcss%3Ffamily%3DArchitects%2BDaughter;fontSize=16;" edge="1" parent="1" source="U9TERcy0e56pPqCLAwJ6-1" target="U9TERcy0e56pPqCLAwJ6-7">
          <mxGeometry relative="1" as="geometry" />
        </mxCell>
        <mxCell id="U9TERcy0e56pPqCLAwJ6-12" style="rounded=0;sketch=1;hachureGap=4;jiggle=2;curveFitting=1;orthogonalLoop=1;jettySize=auto;html=1;fontFamily=Architects Daughter;fontSource=https%3A%2F%2Ffonts.googleapis.com%2Fcss%3Ffamily%3DArchitects%2BDaughter;fontSize=16;" edge="1" parent="1" source="U9TERcy0e56pPqCLAwJ6-1" target="U9TERcy0e56pPqCLAwJ6-5">
          <mxGeometry relative="1" as="geometry" />
        </mxCell>
        <mxCell id="U9TERcy0e56pPqCLAwJ6-1" value="&lt;font style=&quot;font-size: 18px;&quot;&gt;상품정보&lt;/font&gt;" style="rounded=1;whiteSpace=wrap;html=1;sketch=1;hachureGap=4;jiggle=2;curveFitting=1;fontFamily=Architects Daughter;fontSource=https%3A%2F%2Ffonts.googleapis.com%2Fcss%3Ffamily%3DArchitects%2BDaughter;fontSize=20;fillColor=#d5e8d4;strokeColor=#82b366;" vertex="1" parent="1">
          <mxGeometry x="620" y="760" width="120" height="60" as="geometry" />
        </mxCell>
        <mxCell id="U9TERcy0e56pPqCLAwJ6-3" value="&lt;font style=&quot;font-size: 18px;&quot;&gt;상품코드&lt;/font&gt;" style="ellipse;whiteSpace=wrap;html=1;align=center;fontStyle=4;sketch=1;hachureGap=4;jiggle=2;curveFitting=1;fontFamily=Architects Daughter;fontSource=https%3A%2F%2Ffonts.googleapis.com%2Fcss%3Ffamily%3DArchitects%2BDaughter;fontSize=20;fillColor=#dae8fc;strokeColor=#6c8ebf;" vertex="1" parent="1">
          <mxGeometry x="370" y="880" width="100" height="40" as="geometry" />
        </mxCell>
        <mxCell id="U9TERcy0e56pPqCLAwJ6-4" value="&lt;font style=&quot;font-size: 18px;&quot;&gt;상품명&lt;/font&gt;" style="ellipse;whiteSpace=wrap;html=1;align=center;sketch=1;hachureGap=4;jiggle=2;curveFitting=1;fontFamily=Architects Daughter;fontSource=https%3A%2F%2Ffonts.googleapis.com%2Fcss%3Ffamily%3DArchitects%2BDaughter;fontSize=20;" vertex="1" parent="1">
          <mxGeometry x="500" y="880" width="100" height="40" as="geometry" />
        </mxCell>
        <mxCell id="U9TERcy0e56pPqCLAwJ6-5" value="&lt;font style=&quot;font-size: 18px;&quot;&gt;매출단가&lt;/font&gt;" style="ellipse;whiteSpace=wrap;html=1;align=center;sketch=1;hachureGap=4;jiggle=2;curveFitting=1;fontFamily=Architects Daughter;fontSource=https%3A%2F%2Ffonts.googleapis.com%2Fcss%3Ffamily%3DArchitects%2BDaughter;fontSize=20;" vertex="1" parent="1">
          <mxGeometry x="890" y="880" width="100" height="40" as="geometry" />
        </mxCell>
        <mxCell id="U9TERcy0e56pPqCLAwJ6-6" value="&lt;font style=&quot;font-size: 18px;&quot;&gt;품목&lt;/font&gt;" style="ellipse;whiteSpace=wrap;html=1;align=center;sketch=1;hachureGap=4;jiggle=2;curveFitting=1;fontFamily=Architects Daughter;fontSource=https%3A%2F%2Ffonts.googleapis.com%2Fcss%3Ffamily%3DArchitects%2BDaughter;fontSize=20;" vertex="1" parent="1">
          <mxGeometry x="630" y="880" width="100" height="40" as="geometry" />
        </mxCell>
        <mxCell id="U9TERcy0e56pPqCLAwJ6-7" value="&lt;font style=&quot;font-size: 18px;&quot;&gt;매입단가&lt;/font&gt;" style="ellipse;whiteSpace=wrap;html=1;align=center;sketch=1;hachureGap=4;jiggle=2;curveFitting=1;fontFamily=Architects Daughter;fontSource=https%3A%2F%2Ffonts.googleapis.com%2Fcss%3Ffamily%3DArchitects%2BDaughter;fontSize=20;" vertex="1" parent="1">
          <mxGeometry x="760" y="880" width="100" height="40" as="geometry" />
        </mxCell>
        <mxCell id="U9TERcy0e56pPqCLAwJ6-13" style="rounded=0;sketch=1;hachureGap=4;jiggle=2;curveFitting=1;orthogonalLoop=1;jettySize=auto;html=1;fontFamily=Architects Daughter;fontSource=https%3A%2F%2Ffonts.googleapis.com%2Fcss%3Ffamily%3DArchitects%2BDaughter;fontSize=16;" edge="1" parent="1" source="U9TERcy0e56pPqCLAwJ6-18" target="U9TERcy0e56pPqCLAwJ6-19">
          <mxGeometry relative="1" as="geometry" />
        </mxCell>
        <mxCell id="U9TERcy0e56pPqCLAwJ6-14" style="rounded=0;sketch=1;hachureGap=4;jiggle=2;curveFitting=1;orthogonalLoop=1;jettySize=auto;html=1;fontFamily=Architects Daughter;fontSource=https%3A%2F%2Ffonts.googleapis.com%2Fcss%3Ffamily%3DArchitects%2BDaughter;fontSize=16;entryX=0.5;entryY=0;entryDx=0;entryDy=0;" edge="1" parent="1" source="U9TERcy0e56pPqCLAwJ6-18" target="U9TERcy0e56pPqCLAwJ6-20">
          <mxGeometry relative="1" as="geometry" />
        </mxCell>
        <mxCell id="U9TERcy0e56pPqCLAwJ6-15" style="rounded=0;sketch=1;hachureGap=4;jiggle=2;curveFitting=1;orthogonalLoop=1;jettySize=auto;html=1;entryX=0.5;entryY=0;entryDx=0;entryDy=0;fontFamily=Architects Daughter;fontSource=https%3A%2F%2Ffonts.googleapis.com%2Fcss%3Ffamily%3DArchitects%2BDaughter;fontSize=16;" edge="1" parent="1" source="U9TERcy0e56pPqCLAwJ6-18" target="U9TERcy0e56pPqCLAwJ6-22">
          <mxGeometry relative="1" as="geometry" />
        </mxCell>
        <mxCell id="U9TERcy0e56pPqCLAwJ6-16" style="rounded=0;sketch=1;hachureGap=4;jiggle=2;curveFitting=1;orthogonalLoop=1;jettySize=auto;html=1;fontFamily=Architects Daughter;fontSource=https%3A%2F%2Ffonts.googleapis.com%2Fcss%3Ffamily%3DArchitects%2BDaughter;fontSize=16;" edge="1" parent="1" source="U9TERcy0e56pPqCLAwJ6-18" target="U9TERcy0e56pPqCLAwJ6-23">
          <mxGeometry relative="1" as="geometry" />
        </mxCell>
        <mxCell id="U9TERcy0e56pPqCLAwJ6-18" value="&lt;font style=&quot;font-size: 18px;&quot;&gt;고객정보&lt;/font&gt;" style="rounded=1;whiteSpace=wrap;html=1;sketch=1;hachureGap=4;jiggle=2;curveFitting=1;fontFamily=Architects Daughter;fontSource=https%3A%2F%2Ffonts.googleapis.com%2Fcss%3Ffamily%3DArchitects%2BDaughter;fontSize=20;fillColor=#d5e8d4;strokeColor=#82b366;" vertex="1" parent="1">
          <mxGeometry x="1290" y="760" width="120" height="60" as="geometry" />
        </mxCell>
        <mxCell id="U9TERcy0e56pPqCLAwJ6-19" value="&lt;font style=&quot;font-size: 18px;&quot;&gt;고객ID&lt;/font&gt;" style="ellipse;whiteSpace=wrap;html=1;align=center;fontStyle=4;sketch=1;hachureGap=4;jiggle=2;curveFitting=1;fontFamily=Architects Daughter;fontSource=https%3A%2F%2Ffonts.googleapis.com%2Fcss%3Ffamily%3DArchitects%2BDaughter;fontSize=20;fillColor=#dae8fc;strokeColor=#6c8ebf;" vertex="1" parent="1">
          <mxGeometry x="1105" y="880" width="100" height="40" as="geometry" />
        </mxCell>
        <mxCell id="U9TERcy0e56pPqCLAwJ6-20" value="&lt;span style=&quot;font-size: 18px;&quot;&gt;고객이름&lt;/span&gt;" style="ellipse;whiteSpace=wrap;html=1;align=center;sketch=1;hachureGap=4;jiggle=2;curveFitting=1;fontFamily=Architects Daughter;fontSource=https%3A%2F%2Ffonts.googleapis.com%2Fcss%3Ffamily%3DArchitects%2BDaughter;fontSize=20;" vertex="1" parent="1">
          <mxGeometry x="1235" y="880" width="100" height="40" as="geometry" />
        </mxCell>
        <mxCell id="U9TERcy0e56pPqCLAwJ6-22" value="&lt;font style=&quot;font-size: 18px;&quot;&gt;전화번호&lt;/font&gt;" style="ellipse;whiteSpace=wrap;html=1;align=center;sketch=1;hachureGap=4;jiggle=2;curveFitting=1;fontFamily=Architects Daughter;fontSource=https%3A%2F%2Ffonts.googleapis.com%2Fcss%3Ffamily%3DArchitects%2BDaughter;fontSize=20;" vertex="1" parent="1">
          <mxGeometry x="1365" y="880" width="100" height="40" as="geometry" />
        </mxCell>
        <mxCell id="U9TERcy0e56pPqCLAwJ6-23" value="&lt;font style=&quot;font-size: 18px;&quot;&gt;주소&lt;/font&gt;" style="ellipse;whiteSpace=wrap;html=1;align=center;sketch=1;hachureGap=4;jiggle=2;curveFitting=1;fontFamily=Architects Daughter;fontSource=https%3A%2F%2Ffonts.googleapis.com%2Fcss%3Ffamily%3DArchitects%2BDaughter;fontSize=20;" vertex="1" parent="1">
          <mxGeometry x="1495" y="880" width="100" height="40" as="geometry" />
        </mxCell>
        <mxCell id="U9TERcy0e56pPqCLAwJ6-34" style="rounded=0;sketch=1;hachureGap=4;jiggle=2;curveFitting=1;orthogonalLoop=1;jettySize=auto;html=1;entryX=0.5;entryY=1;entryDx=0;entryDy=0;fontFamily=Architects Daughter;fontSource=https%3A%2F%2Ffonts.googleapis.com%2Fcss%3Ffamily%3DArchitects%2BDaughter;fontSize=16;" edge="1" parent="1" source="U9TERcy0e56pPqCLAwJ6-24" target="U9TERcy0e56pPqCLAwJ6-29">
          <mxGeometry relative="1" as="geometry" />
        </mxCell>
        <mxCell id="U9TERcy0e56pPqCLAwJ6-35" style="rounded=0;sketch=1;hachureGap=4;jiggle=2;curveFitting=1;orthogonalLoop=1;jettySize=auto;html=1;entryX=0.5;entryY=1;entryDx=0;entryDy=0;fontFamily=Architects Daughter;fontSource=https%3A%2F%2Ffonts.googleapis.com%2Fcss%3Ffamily%3DArchitects%2BDaughter;fontSize=16;" edge="1" parent="1" source="U9TERcy0e56pPqCLAwJ6-24" target="U9TERcy0e56pPqCLAwJ6-31">
          <mxGeometry relative="1" as="geometry" />
        </mxCell>
        <mxCell id="U9TERcy0e56pPqCLAwJ6-36" style="rounded=0;sketch=1;hachureGap=4;jiggle=2;curveFitting=1;orthogonalLoop=1;jettySize=auto;html=1;entryX=0.5;entryY=1;entryDx=0;entryDy=0;fontFamily=Architects Daughter;fontSource=https%3A%2F%2Ffonts.googleapis.com%2Fcss%3Ffamily%3DArchitects%2BDaughter;fontSize=16;" edge="1" parent="1" source="U9TERcy0e56pPqCLAwJ6-24" target="U9TERcy0e56pPqCLAwJ6-32">
          <mxGeometry relative="1" as="geometry" />
        </mxCell>
        <mxCell id="U9TERcy0e56pPqCLAwJ6-37" style="rounded=0;sketch=1;hachureGap=4;jiggle=2;curveFitting=1;orthogonalLoop=1;jettySize=auto;html=1;entryX=0.5;entryY=1;entryDx=0;entryDy=0;fontFamily=Architects Daughter;fontSource=https%3A%2F%2Ffonts.googleapis.com%2Fcss%3Ffamily%3DArchitects%2BDaughter;fontSize=16;" edge="1" parent="1" source="U9TERcy0e56pPqCLAwJ6-24" target="U9TERcy0e56pPqCLAwJ6-30">
          <mxGeometry relative="1" as="geometry" />
        </mxCell>
        <mxCell id="U9TERcy0e56pPqCLAwJ6-38" style="rounded=0;sketch=1;hachureGap=4;jiggle=2;curveFitting=1;orthogonalLoop=1;jettySize=auto;html=1;entryX=0.5;entryY=1;entryDx=0;entryDy=0;fontFamily=Architects Daughter;fontSource=https%3A%2F%2Ffonts.googleapis.com%2Fcss%3Ffamily%3DArchitects%2BDaughter;fontSize=16;" edge="1" parent="1" source="U9TERcy0e56pPqCLAwJ6-24" target="U9TERcy0e56pPqCLAwJ6-33">
          <mxGeometry relative="1" as="geometry" />
        </mxCell>
        <mxCell id="U9TERcy0e56pPqCLAwJ6-40" style="rounded=0;sketch=1;hachureGap=4;jiggle=2;curveFitting=1;orthogonalLoop=1;jettySize=auto;html=1;entryX=0.5;entryY=1;entryDx=0;entryDy=0;fontFamily=Architects Daughter;fontSource=https%3A%2F%2Ffonts.googleapis.com%2Fcss%3Ffamily%3DArchitects%2BDaughter;fontSize=16;" edge="1" parent="1" source="U9TERcy0e56pPqCLAwJ6-24" target="U9TERcy0e56pPqCLAwJ6-39">
          <mxGeometry relative="1" as="geometry" />
        </mxCell>
        <mxCell id="U9TERcy0e56pPqCLAwJ6-24" value="&lt;font style=&quot;font-size: 18px;&quot;&gt;판매내역&lt;/font&gt;" style="shape=rhombus;perimeter=rhombusPerimeter;whiteSpace=wrap;html=1;align=center;sketch=1;hachureGap=4;jiggle=2;curveFitting=1;fontFamily=Architects Daughter;fontSource=https%3A%2F%2Ffonts.googleapis.com%2Fcss%3Ffamily%3DArchitects%2BDaughter;fontSize=20;fillColor=#ffe6cc;strokeColor=#d79b00;" vertex="1" parent="1">
          <mxGeometry x="930" y="480" width="190" height="100" as="geometry" />
        </mxCell>
        <mxCell id="U9TERcy0e56pPqCLAwJ6-25" value="" style="endArrow=none;html=1;rounded=0;sketch=1;hachureGap=4;jiggle=2;curveFitting=1;fontFamily=Architects Daughter;fontSource=https%3A%2F%2Ffonts.googleapis.com%2Fcss%3Ffamily%3DArchitects%2BDaughter;fontSize=16;exitX=0.5;exitY=0;exitDx=0;exitDy=0;entryX=0.5;entryY=1;entryDx=0;entryDy=0;" edge="1" parent="1" source="U9TERcy0e56pPqCLAwJ6-1" target="U9TERcy0e56pPqCLAwJ6-24">
          <mxGeometry relative="1" as="geometry">
            <mxPoint x="930" y="690" as="sourcePoint" />
            <mxPoint x="1090" y="690" as="targetPoint" />
          </mxGeometry>
        </mxCell>
        <mxCell id="U9TERcy0e56pPqCLAwJ6-26" value="N" style="resizable=0;html=1;whiteSpace=wrap;align=right;verticalAlign=bottom;sketch=1;hachureGap=4;jiggle=2;curveFitting=1;fontFamily=Architects Daughter;fontSource=https%3A%2F%2Ffonts.googleapis.com%2Fcss%3Ffamily%3DArchitects%2BDaughter;fontSize=20;" connectable="0" vertex="1" parent="U9TERcy0e56pPqCLAwJ6-25">
          <mxGeometry x="1" relative="1" as="geometry" />
        </mxCell>
        <mxCell id="U9TERcy0e56pPqCLAwJ6-27" value="" style="endArrow=none;html=1;rounded=0;sketch=1;hachureGap=4;jiggle=2;curveFitting=1;fontFamily=Architects Daughter;fontSource=https%3A%2F%2Ffonts.googleapis.com%2Fcss%3Ffamily%3DArchitects%2BDaughter;fontSize=16;exitX=0.5;exitY=0;exitDx=0;exitDy=0;entryX=0.5;entryY=1;entryDx=0;entryDy=0;" edge="1" parent="1" source="U9TERcy0e56pPqCLAwJ6-18" target="U9TERcy0e56pPqCLAwJ6-24">
          <mxGeometry relative="1" as="geometry">
            <mxPoint x="690" y="770" as="sourcePoint" />
            <mxPoint x="1000" y="585" as="targetPoint" />
          </mxGeometry>
        </mxCell>
        <mxCell id="U9TERcy0e56pPqCLAwJ6-28" value="N" style="resizable=0;html=1;whiteSpace=wrap;align=right;verticalAlign=bottom;sketch=1;hachureGap=4;jiggle=2;curveFitting=1;fontFamily=Architects Daughter;fontSource=https%3A%2F%2Ffonts.googleapis.com%2Fcss%3Ffamily%3DArchitects%2BDaughter;fontSize=20;" connectable="0" vertex="1" parent="U9TERcy0e56pPqCLAwJ6-27">
          <mxGeometry x="1" relative="1" as="geometry" />
        </mxCell>
        <mxCell id="U9TERcy0e56pPqCLAwJ6-29" value="&lt;font style=&quot;font-size: 18px;&quot;&gt;거래일자&lt;/font&gt;" style="ellipse;whiteSpace=wrap;html=1;align=center;sketch=1;hachureGap=4;jiggle=2;curveFitting=1;fontFamily=Architects Daughter;fontSource=https%3A%2F%2Ffonts.googleapis.com%2Fcss%3Ffamily%3DArchitects%2BDaughter;fontSize=20;" vertex="1" parent="1">
          <mxGeometry x="780" y="360" width="100" height="40" as="geometry" />
        </mxCell>
        <mxCell id="U9TERcy0e56pPqCLAwJ6-30" value="&lt;font style=&quot;font-size: 18px;&quot;&gt;판매단가&lt;/font&gt;" style="ellipse;whiteSpace=wrap;html=1;align=center;sketch=1;hachureGap=4;jiggle=2;curveFitting=1;fontFamily=Architects Daughter;fontSource=https%3A%2F%2Ffonts.googleapis.com%2Fcss%3Ffamily%3DArchitects%2BDaughter;fontSize=20;" vertex="1" parent="1">
          <mxGeometry x="1170" y="360" width="100" height="40" as="geometry" />
        </mxCell>
        <mxCell id="U9TERcy0e56pPqCLAwJ6-31" value="&lt;span style=&quot;font-size: 18px;&quot;&gt;거래시각&lt;/span&gt;" style="ellipse;whiteSpace=wrap;html=1;align=center;sketch=1;hachureGap=4;jiggle=2;curveFitting=1;fontFamily=Architects Daughter;fontSource=https%3A%2F%2Ffonts.googleapis.com%2Fcss%3Ffamily%3DArchitects%2BDaughter;fontSize=20;" vertex="1" parent="1">
          <mxGeometry x="910" y="360" width="100" height="40" as="geometry" />
        </mxCell>
        <mxCell id="U9TERcy0e56pPqCLAwJ6-32" value="&lt;font style=&quot;font-size: 18px;&quot;&gt;수량&lt;/font&gt;" style="ellipse;whiteSpace=wrap;html=1;align=center;sketch=1;hachureGap=4;jiggle=2;curveFitting=1;fontFamily=Architects Daughter;fontSource=https%3A%2F%2Ffonts.googleapis.com%2Fcss%3Ffamily%3DArchitects%2BDaughter;fontSize=20;" vertex="1" parent="1">
          <mxGeometry x="1040" y="360" width="100" height="40" as="geometry" />
        </mxCell>
        <mxCell id="U9TERcy0e56pPqCLAwJ6-33" value="&lt;font style=&quot;font-size: 18px;&quot;&gt;판매금액&lt;/font&gt;" style="ellipse;whiteSpace=wrap;html=1;align=center;sketch=1;hachureGap=4;jiggle=2;curveFitting=1;fontFamily=Architects Daughter;fontSource=https%3A%2F%2Ffonts.googleapis.com%2Fcss%3Ffamily%3DArchitects%2BDaughter;fontSize=20;" vertex="1" parent="1">
          <mxGeometry x="1310" y="360" width="100" height="40" as="geometry" />
        </mxCell>
        <mxCell id="U9TERcy0e56pPqCLAwJ6-39" value="&lt;span style=&quot;font-size: 18px;&quot;&gt;SEQ&lt;/span&gt;" style="ellipse;whiteSpace=wrap;html=1;align=center;fontStyle=4;sketch=1;hachureGap=4;jiggle=2;curveFitting=1;fontFamily=Architects Daughter;fontSource=https%3A%2F%2Ffonts.googleapis.com%2Fcss%3Ffamily%3DArchitects%2BDaughter;fontSize=20;fillColor=#dae8fc;strokeColor=#6c8ebf;" vertex="1" parent="1">
          <mxGeometry x="620" y="360" width="100" height="40" as="geometry" />
        </mxCell>
      </root>
    </mxGraphModel>
  </diagram>
</mxfile>
